<?xml version="1.0" encoding="UTF-8"?><svg id="Layer_2" xmlns="http://www.w3.org/2000/svg" viewBox="0 0 110 79.48"><defs><style>.cls-1{fill:#0f81c7;}</style></defs><g id="Layer_1-2"><g id="SvgjsG1007"><path class="cls-1" d="M67.63,19.29L57.86,2.65c-2.04-3.54-7.14-3.54-9.21,0l-18.39,31.43,19.33,5.78,18.04-20.57Z"/><path class="cls-1" d="M84.3,47.74l-31.86,4.93c-.29.03-.58.06-.88.06-.58,0-1.14-.1-1.75-.26l-25.82-7.72-11.22,19.17c-1.85,3.12-.1,7.14,3.47,7.92l32.77,7.17c2.79.62,5.71.62,8.5,0l32.8-7.17c3.54-.78,5.29-4.8,3.47-7.92l-9.47-16.19Z"/><path class="cls-1" d="M107.57,35.94l-44.54,6.88,39.5-21.7c1.04-.55,1.39-1.82.85-2.85-.58-1-1.85-1.39-2.89-.84l-39.48,21.7L90.69,5.22c.78-.88.68-2.21-.19-2.95-.88-.78-2.21-.68-2.95.19l-36.67,41.86L2.71,29.92c-1.11-.33-2.29.3-2.62,1.42-.33,1.12.3,2.29,1.42,2.63l49.44,14.79c.2.06.4.09.61.09.11,0,.22,0,.32-.03l56.34-8.71c1.15-.18,1.94-1.25,1.76-2.41-.18-1.14-1.25-1.93-2.41-1.76h0Z"/></g></g></svg>